<svg id="Layer_1" data-name="Layer 1" xmlns="http://www.w3.org/2000/svg" viewBox="0 0 1756 512.16"><title>headsailStudioBlack</title><path d="M767.7,1066.23H733.3V995.31h-78v70.92H620.87V891.65h34.39V962.1h78V891.65h34.4Z" transform="translate(-62 -839.44)"/><path d="M931.84,891.65v33.21H847.16V962.1h75v33.21h-75V1033h88v33.21H812.76V891.65Z" transform="translate(-62 -839.44)"/><path d="M1057.07,1032.07H999.2L985,1066.23H951.05l78.74-181.46h1.9l78.75,181.46h-39.85Zm-11.38-28.94-16.84-42.46-17.56,42.46Z" transform="translate(-62 -839.44)"/><path d="M1135.82,891.65H1188q33.43,0,55,12.93T1274.47,938a100.6,100.6,0,0,1,9.84,44q0,25.15-11.86,44.36a79.72,79.72,0,0,1-31.9,29.53,94.71,94.71,0,0,1-44,10.32h-60.73Zm54.8,141.37q26.79,0,42.45-13.76t15.66-39.61q0-20.86-8.66-33.21t-20.16-17.08a57.11,57.11,0,0,0-21.7-4.74h-28V1033Z" transform="translate(-62 -839.44)"/><path d="M1372.31,921.3q-11.38,0-17.67,4.51t-6.29,13.52q0,8.29,9.13,14.58t24.32,12a101.51,101.51,0,0,1,21.11,10.32,46.3,46.3,0,0,1,14.59,16q5.8,10.2,5.81,25.86a47.31,47.31,0,0,1-7,25q-7,11.51-20.52,18.26t-32.26,6.77a107.77,107.77,0,0,1-31.07-4.63,97,97,0,0,1-28.7-14.11l15.18-26.81a82.24,82.24,0,0,0,20.64,10.91q11.61,4.27,20.87,4.27a37.5,37.5,0,0,0,19-4.62q8.07-4.64,8.07-15.06,0-13.53-25.38-23.49a226.29,226.29,0,0,1-24.91-11.38A51.24,51.24,0,0,1,1320,967.55q-7.24-10.18-7.24-25.61,0-22.55,14.83-36.3t39.49-14.94q19.44,0,32.5,4.39A111.72,111.72,0,0,1,1425,907.54l-13,26.33Q1389.15,921.3,1372.31,921.3Z" transform="translate(-62 -839.44)"/><path d="M1543.33,1032.07h-57.88l-14.23,34.16H1437.3l78.75-181.46h1.9l78.75,181.46h-39.85Zm-11.39-28.94-16.84-42.46-17.55,42.46Z" transform="translate(-62 -839.44)"/><path d="M1656.47,891.65v174.58h-34.39V891.65Z" transform="translate(-62 -839.44)"/><path d="M1735.93,891.65V1033H1818v33.21H1701.54V891.65Z" transform="translate(-62 -839.44)"/><path d="M694,1144.28a84.86,84.86,0,0,0-20.64-2.61,49.93,49.93,0,0,0-21.11,4.27A33.43,33.43,0,0,0,638,1157.68a29.11,29.11,0,0,0-5,16.49,25.21,25.21,0,0,0,5.69,16.6A44.83,44.83,0,0,0,652.91,1202a214.74,214.74,0,0,0,22.54,9.61,189.84,189.84,0,0,1,24.31,10.67,47.06,47.06,0,0,1,16.13,14.47q6.52,9.26,6.52,23.48t-6.52,24.79A43.45,43.45,0,0,1,698,1301.31a57.1,57.1,0,0,1-25.85,5.69,78.19,78.19,0,0,1-22.42-3.08q-10.32-3.09-14.59-5.46t-14.23-8.3l2.37-4.27a99.45,99.45,0,0,0,21.94,11.62,70.15,70.15,0,0,0,26,5.22,54.67,54.67,0,0,0,22.65-4.74,41.12,41.12,0,0,0,17.2-14.35q6.63-9.62,6.64-23.13,0-13-6.17-21.59a45.23,45.23,0,0,0-15.42-13.52,179,179,0,0,0-23.72-10.2,202.12,202.12,0,0,1-23.12-9.84,46.64,46.64,0,0,1-15-12.1q-6-7.47-6-18.38a32.76,32.76,0,0,1,5.93-19.33,39.82,39.82,0,0,1,16.13-13.17,52.82,52.82,0,0,1,22.54-4.74,101.19,101.19,0,0,1,21.23,2.61,91.18,91.18,0,0,1,20.28,6.64l-1.9,3.56A115.76,115.76,0,0,0,694,1144.28Z" transform="translate(-62 -839.44)"/><path d="M856.19,1138.59v4.51H804.48v162h-4.74v-162H748v-4.51Z" transform="translate(-62 -839.44)"/><path d="M916.8,1288.73q13.63,13.77,35.7,13.76a52.22,52.22,0,0,0,25.49-6.16,43.89,43.89,0,0,0,17.68-17.91q6.41-11.75,6.4-27.87v-112h4.74V1251q0,17.55-7.11,30.24a47.48,47.48,0,0,1-19.45,19.22A58.46,58.46,0,0,1,952.5,1307q-15.66,0-27.87-6.52a47,47,0,0,1-19.22-19.1q-7-12.57-7-30.36V1138.59h4.75v112Q903.16,1275,916.8,1288.73Z" transform="translate(-62 -839.44)"/><path d="M1063,1138.59h38.19q29.88,0,49.81,12.45t29.17,31.55a89.51,89.51,0,0,1,9.25,39.49q0,24.68-11.14,43.53a78.62,78.62,0,0,1-29.53,29.17,79.85,79.85,0,0,1-39.73,10.32h-46Zm43.88,162a80.19,80.19,0,0,0,39.14-9.72,72.31,72.31,0,0,0,28.22-27.63q10.44-17.91,10.44-41.4a83.69,83.69,0,0,0-8.89-37.47q-8.89-18-27.87-29.53t-47.68-11.51h-32.5v157.26Z" transform="translate(-62 -839.44)"/><path d="M1240,1138.59V1305.1h-4.75V1138.59Z" transform="translate(-62 -839.44)"/><path d="M1297.14,1179.39a84.92,84.92,0,0,1,31-31.2,84.78,84.78,0,0,1,85.27,0,85.62,85.62,0,0,1,31.19,31.2,84.78,84.78,0,0,1,0,85.27,85,85,0,0,1-31.19,30.95,83.85,83.85,0,0,1-42.7,11.39,85,85,0,0,1-42.69-11,82.29,82.29,0,0,1-30.84-30.36q-11.39-19.33-11.38-43.53A83.81,83.81,0,0,1,1297.14,1179.39Zm4.15,83a80.65,80.65,0,0,0,29.06,29.29,76.43,76.43,0,0,0,39.61,10.79,81.46,81.46,0,0,0,70.45-40.08,79.76,79.76,0,0,0,0-80.53,82.36,82.36,0,0,0-29.53-29.65,79.3,79.3,0,0,0-80.89.12,82,82,0,0,0-39.49,70A78.26,78.26,0,0,0,1301.29,1262.41Z" transform="translate(-62 -839.44)"/><path d="M62,1251.24l473.37-411.8c-72.25,126.08-157.14,305.44-236.69,477.62Z" transform="translate(-62 -839.44)"/><path d="M545.72,1109.9c-60.81,77.92-113.44,194.73-116,241.7l-218.15-14.39C313.61,1243.83,424.22,1166.35,545.72,1109.9Z" transform="translate(-62 -839.44)"/></svg>